
        <svg xmlns="http://www.w3.org/2000/svg" xmlns:xlink="http://www.w3.org/1999/xlink" version="1.1" width="3147.783251231527" height="1137.9310344827586" viewBox="0 0 3147.783251231527 1137.9310344827586">
			
			<g transform="scale(7.389162561576355) translate(10, 10)">
				<defs id="SvgjsDefs1162"/><g id="SvgjsG1163" featureKey="LwVBM5-0" transform="matrix(0.9259404471206143,0,0,0.9259404471206143,-4.631000312668794,20.463692696167172)" fill="#fff"><g xmlns="http://www.w3.org/2000/svg" display="none"><rect x="-137.382" y="-8.38" display="inline" stroke="#f8f8e0" stroke-width="0.4634" stroke-miterlimit="10" width="1226.941" height="1582.379"/></g><g xmlns="http://www.w3.org/2000/svg"><g><path d="M93.626,33.986c-2.331-4.859-7.324-8-12.718-8c-0.508,0-1.012,0.027-1.512,0.081c-0.671-5.771-4.906-10.803-10.833-12.167    c-1.042-0.24-2.108-0.361-3.169-0.361c-1.32,0-2.633,0.187-3.902,0.555c-5.703,1.654-9.686,7.088-9.686,13.215v0.971v10.629V61.1    v7.968v3.569c0,7.236,5.489,13.293,12.497,13.79c0.328,0.023,0.661,0.035,0.989,0.035c1.051,0,2.104-0.12,3.13-0.356    c5.924-1.337,10.18-6.348,10.876-12.112c0.518,0.058,1.041,0.087,1.568,0.087c5.372,0,10.356-3.122,12.699-7.953    c2.656-5.478,1.39-11.935-2.69-16.073C94.972,45.932,96.264,39.477,93.626,33.986z M90.917,64.845    c-1.929,3.977-5.91,6.295-10.052,6.295c-1.555,0-3.132-0.327-4.633-1.015c1.215,5.934-2.537,11.776-8.471,13.115    c-0.826,0.19-1.661,0.281-2.471,0.281c-0.262,0-0.522-0.009-0.781-0.028c-5.569-0.395-9.764-5.273-9.764-10.856v-3.569V61.1    V38.908V28.279v-0.971c0-4.738,3.014-9.071,7.564-10.39c0.989-0.287,2.025-0.438,3.083-0.438c0.828,0,1.668,0.093,2.51,0.286    c5.925,1.363,9.652,7.223,8.412,13.156c1.489-0.674,3.053-0.995,4.593-0.995c4.159,0,8.15,2.335,10.068,6.333    c2.636,5.487,0.38,12.057-5.033,14.784C91.347,52.796,93.57,59.374,90.917,64.845z"/><g><path d="M17.646,48.444h8.611v9.173h9.966v-1.961h-0.865h-7.14v-8.086v-1.086h-0.959h-7.652v-5.537h2.05v-0.808V34.69h-6.257     v6.257h2.246V48.444z M17.36,38.986v-2.335h2.335v2.335H17.36z"/><path d="M19.606,66.513v-6.847h2.05v-0.764v-5.493h-6.257v6.257h2.246v8.807h9.778v-0.98v0v-0.98h-0.658H19.606z M17.36,57.705     V55.37h2.335v2.335H17.36z"/><path d="M39.921,52.143h-0.98v2.505v19.707h-2.822v-2.148h-4.052h-2.205v6.257h6.257v-2.148h4.783V52.143H39.921L39.921,52.143z      M34.158,76.503h-2.335v-2.335h2.335V76.503z"/><path d="M34.714,30.031v-2.148h3.468v9.126v1.267h1.961V25.923h-5.429v-2.148h-6.256v6.256h4.326H34.714z M32.754,28.071h-2.335     v-2.335h2.335V28.071z"/><path d="M68.447,59.847h-0.98v1.657v12.712h-3.733v-2.148h-2.516h-3.741v6.257h6.257v-2.148h5.693v-16.33H68.447L68.447,59.847z      M61.774,76.364h-2.335v-2.335h2.335V76.364z"/><path d="M82.615,43.399v-7.812l-16.581,0.091h-5.175v-8.914h3.995v2.148h2.987h3.269v-6.257h-6.257v2.148h-5.956v30.792h-1.42     v6.257h6.257v-6.257h-2.876v-0.542V37.638h11.289v10.583h-1.779v0.322v5.196h5.518v-5.518h-1.778V37.548h1.297h5.25v4.702v1.149     h-1.778v5.517h5.518v-5.517H82.615z M66.814,24.616h2.335v2.335h-2.335V24.616z M61.774,57.556v2.335h-2.335v-2.335H61.774z      M73.925,51.779h-1.596v-1.596h1.596V51.779z M82.432,46.955h-1.596v-1.596h1.596V46.955z"/><path d="M78.876,59.037v0.82h1.778v5.537h-6.759h-0.768v0.98v0v0.98h9.487v-7.497h1.778V54.34h-5.517V59.037z M80.836,56.3h1.596     v1.596h-1.596V56.3z"/><path d="M38.51,14.09c-1.27-0.37-2.58-0.55-3.9-0.55c-1.06,0-2.13,0.12-3.17,0.36c-5.93,1.36-10.16,6.4-10.84,12.17     c-0.49-0.06-1-0.08-1.51-0.08c-5.39,0-10.38,3.14-12.72,8c-2.63,5.49-1.34,11.94,2.76,16.06c-4.08,4.14-5.35,10.6-2.69,16.08     c2.34,4.83,7.32,7.95,12.7,7.95c0.52,0,1.05-0.03,1.56-0.09c0.7,5.77,4.96,10.78,10.89,12.12c1.02,0.23,2.07,0.35,3.12,0.35     c0.33,0,0.66-0.01,0.99-0.03c7.01-0.5,12.5-6.56,12.5-13.79V27.31C48.2,21.18,44.21,15.75,38.51,14.09z M45.25,72.64     c0,5.58-4.19,10.46-9.76,10.85c-0.26,0.02-0.52,0.03-0.78,0.03c-0.81,0-1.64-0.09-2.47-0.28c-5.93-1.34-9.69-7.18-8.47-13.11     c-1.5,0.68-3.08,1.01-4.63,1.01c-4.15,0-8.13-2.32-10.06-6.3c-2.65-5.47-0.43-12.04,4.98-14.8c-5.42-2.72-7.67-9.29-5.03-14.78     c1.91-4,5.9-6.33,10.06-6.33c1.54,0,3.11,0.32,4.6,0.99c-1.24-5.93,2.48-11.79,8.41-13.15c0.84-0.2,1.68-0.29,2.51-0.29     c1.06,0,2.09,0.15,3.08,0.44c4.55,1.32,7.56,5.65,7.56,10.39v17.33h-7.5v-2.15h-6.26v6.26h6.26V46.6h7.5V72.64z M35.79,44.45     v2.34h-2.33v-2.34H35.79z"/></g></g></g></g><g id="SvgjsG1164" featureKey="textGroupContainer" transform="matrix(1,0,0,1,405,0)" fill="#fff"><rect xmlns="http://www.w3.org/2000/svg" y="0" height="1" width="1" opacity="0"/><rect xmlns="http://www.w3.org/2000/svg" y="0" x="-302" width="3" height="134"/></g><g id="SvgjsG1165" featureKey="YhTCwJ-0" transform="matrix(2.5015633339431123,0,0,2.5015633339431123,120.69981387904639,19.390870940902303)" fill="#fff"><path d="M7.94 5.84 l6.02 14.16 l-1.96 0 l-1.44 -3.48 l-7.08 0 l-1.46 3.48 l-1.9 0 l6.24 -14.16 l1.58 0 z M7.08 8 l-2.94 6.96 l5.78 0 l-2.8 -6.96 l-0.04 0 z M17.52 5.84 l0 14.16 l-1.68 0 l0 -14.16 l1.68 0 z M25.36 10.4 q1.76 0 2.66 1.02 t0.9 2.72 l0 5.86 l-1.56 0 l0 -5.68 q0 -1.08 -0.5 -1.77 t-1.64 -0.71 q-1.44 0 -2.17 0.95 t-0.73 2.63 l0 4.58 l-1.56 0 l0 -7.28 q0 -0.1 -0.08 -2.08 l1.48 0 q0.04 1.4 0.04 1.54 l0.04 0 q0.38 -0.8 1.23 -1.29 t1.89 -0.49 z M34.74 10.4 q2.24 0.02 3.18 1.7 l-1.3 0.86 q-0.68 -1.12 -1.98 -1.12 q-0.78 0 -1.31 0.36 t-0.53 0.94 q0 0.94 2.34 1.36 q1.68 0.3 2.38 0.98 t0.7 1.82 q0 1.38 -1.02 2.16 t-2.72 0.78 q-1.32 0 -2.17 -0.42 t-1.47 -1.32 l1.24 -0.96 q0.58 0.7 1.14 0.98 t1.26 0.28 q0.9 0 1.48 -0.39 t0.58 -1.05 q0 -0.68 -0.61 -1.02 t-2.03 -0.62 q-1.4 -0.3 -2.03 -0.9 t-0.63 -1.66 q0 -1.18 0.97 -1.96 t2.53 -0.8 z M45.28 10.4 q2.22 0 3.56 1.4 t1.36 3.52 q0 2.1 -1.36 3.49 t-3.32 1.43 q-1.2 0 -2.17 -0.52 t-1.43 -1.38 l-0.04 0 l0 6.22 l-1.56 0 l0 -13.92 l1.56 0 l0 1.36 l0.04 0 q1.38 -1.6 3.36 -1.6 z M41.88 15.32 q0 1.54 0.93 2.49 t2.39 0.99 q1.46 0 2.38 -0.97 t0.94 -2.51 q0 -1.52 -0.93 -2.5 t-2.41 -0.98 q-1.44 0 -2.36 0.97 t-0.94 2.51 z M53.54 5.84 q0.46 0 0.8 0.33 t0.34 0.81 q0 0.5 -0.32 0.82 t-0.82 0.32 t-0.82 -0.32 t-0.32 -0.82 q0 -0.48 0.34 -0.81 t0.8 -0.33 z M54.32 10.64 l0 9.36 l-1.56 0 l0 -9.36 l1.56 0 z M62.02 10.4 q0.36 0 0.64 0.1 l-0.1 1.58 q-0.44 -0.12 -0.84 -0.12 q-1.36 0 -2.05 0.89 t-0.69 2.51 l0 4.64 l-1.56 0 l0 -7.28 q0 -0.28 -0.08 -2.08 l1.48 0 q0.04 1.4 0.04 1.54 l0.04 0 q0.38 -0.8 1.23 -1.29 t1.89 -0.49 z M68.06 10.4 q2.04 0 2.97 0.96 t0.95 2.9 l0 4.2 q0 0.6 0.14 1.54 l-1.5 0 q-0.1 -0.18 -0.1 -1.4 l-0.04 0 q-1.06 1.6 -3.08 1.64 q-1.54 0 -2.51 -0.77 t-0.97 -2.01 q0 -1.7 1.4 -2.49 t4.38 -0.79 l0.72 0 l0 -0.26 q0 -2.04 -2.32 -2.08 q-1.68 0 -2.78 1.02 l-0.98 -1.02 q1.44 -1.4 3.72 -1.44 z M65.6 17.3 q0 1.58 2.06 1.62 q1.22 0 1.99 -0.78 t0.77 -2.28 l0 -0.36 l-1.72 0 q-1.38 0 -2.23 0.44 t-0.87 1.36 z M77.2 7.98 l0 2.66 l2.76 0 l0 1.32 l-2.76 0 l0 5 q0 1.12 0.36 1.48 t1.04 0.36 q0.78 0 1.38 -0.32 l0.06 1.42 q-0.8 0.34 -1.82 0.34 q-1.44 0 -2.01 -0.71 t-0.57 -2.33 l0 -5.24 l-2.04 0 l0 -1.32 l2.04 0 l0 -2.66 l1.56 0 z M82.8 5.84 q0.46 0 0.8 0.33 t0.34 0.81 q0 0.5 -0.32 0.82 t-0.82 0.32 t-0.82 -0.32 t-0.32 -0.82 q0 -0.48 0.34 -0.81 t0.8 -0.33 z M83.58 10.64 l0 9.36 l-1.56 0 l0 -9.36 l1.56 0 z M91.14 10.4 q2.18 0 3.56 1.35 t1.44 3.57 q0 2.14 -1.4 3.51 t-3.6 1.41 q-2.2 0 -3.58 -1.39 t-1.42 -3.53 q0 -2.16 1.4 -3.53 t3.6 -1.39 z M87.82 15.32 q0 1.54 0.93 2.49 t2.39 0.99 q1.46 0 2.38 -0.97 t0.94 -2.51 q0 -1.52 -0.93 -2.5 t-2.41 -0.98 q-1.44 0 -2.36 0.97 t-0.94 2.51 z M103.16 10.4 q1.76 0 2.66 1.02 t0.9 2.72 l0 5.86 l-1.56 0 l0 -5.68 q0 -1.08 -0.5 -1.77 t-1.64 -0.71 q-1.44 0 -2.17 0.95 t-0.73 2.63 l0 4.58 l-1.56 0 l0 -7.28 q0 -0.1 -0.08 -2.08 l1.48 0 q0.04 1.4 0.04 1.54 l0.04 0 q0.38 -0.8 1.23 -1.29 t1.89 -0.49 z"/></g><g id="SvgjsG1166" featureKey="duLK5n-0" transform="matrix(0.6956867232085007,0,0,0.6956867232085007,120.72172524437075,87.29894651310823)" fill="#fff"><path d="M11.3 20 l-1.58 -4.14 l-5.82 0 l-1.58 4.14 l-1.92 0 l5.48 -14.24 l1.86 0 l5.5 14.24 l-1.94 0 z M9.02 14.1 l-2.2 -5.76 l-2.22 5.76 l4.42 0 z M28.4 20 l0 -14.24 l1.8 0 l0 14.24 l-1.8 0 z M63.82 20 l0 -14.24 l9 0 l0 1.74 l-7.2 0 l0 3.34 l3.96 0 l0 1.76 l-3.96 0 l0 7.4 l-1.8 0 z M93.76 5.32 c4.1 0 7.46 3.34 7.46 7.46 c0 4.1 -3.36 7.42 -7.46 7.42 s-7.44 -3.32 -7.44 -7.42 c0 -4.12 3.34 -7.46 7.44 -7.46 z M93.76 18.44 c3.12 0 5.64 -2.56 5.64 -5.66 c0 -3.12 -2.52 -5.7 -5.64 -5.7 s-5.64 2.58 -5.64 5.7 c0 3.1 2.52 5.66 5.64 5.66 z M121.92 12.42 l5.5 7.58 l-2.06 0 l-5.44 -7.48 l-2.04 0 l0 7.48 l-1.72 0 l0 -14.24 l4.94 0 c0.9 0 1.74 0.36 2.38 1 s1 1.48 1 2.38 c0 1.58 -1.1 2.9 -2.56 3.28 z M117.88 7.48 l0 3.32 l3.22 0 c0.92 0 1.66 -0.74 1.66 -1.66 s-0.74 -1.66 -1.66 -1.66 l-3.22 0 z M163.48 20 l0 -7.2 l-5.02 -7.04 l2.2 0 l3.74 5.22 l3.74 -5.22 l2.18 0 l-5.02 7.04 l0 7.2 l-1.82 0 z M190.88 5.32 c4.1 0 7.46 3.34 7.46 7.46 c0 4.1 -3.36 7.42 -7.46 7.42 s-7.44 -3.32 -7.44 -7.42 c0 -4.12 3.34 -7.46 7.44 -7.46 z M190.88 18.44 c3.12 0 5.64 -2.56 5.64 -5.66 c0 -3.12 -2.52 -5.7 -5.64 -5.7 s-5.64 2.58 -5.64 5.7 c0 3.1 2.52 5.66 5.64 5.66 z M222.2 5.76 l1.8 0 l0 9.02 c0 3 -2.44 5.42 -5.44 5.42 c-2.98 0 -5.42 -2.42 -5.42 -5.42 l0 -9.02 l1.78 0 l0 9.02 c0 2.02 1.64 3.68 3.64 3.68 c2.02 0 3.64 -1.66 3.64 -3.68 l0 -9.02 z"/></g>
			</g>
		</svg>
	